<svg width="1400" height="980" viewBox="0 0 1400 980" fill="none" xmlns="http://www.w3.org/2000/svg">
  <defs>
    <linearGradient id="hero-bg" x1="180" y1="120" x2="1180" y2="900" gradientUnits="userSpaceOnUse">
      <stop stop-color="#1A2370"/>
      <stop offset="0.55" stop-color="#293EA6"/>
      <stop offset="1" stop-color="#6F4CFF"/>
    </linearGradient>
    <linearGradient id="hero-card" x1="240" y1="240" x2="1060" y2="780" gradientUnits="userSpaceOnUse">
      <stop stop-color="#FFFFFF" stop-opacity="0.98"/>
      <stop offset="1" stop-color="#EEF3FF" stop-opacity="0.94"/>
    </linearGradient>
    <filter id="shadow" x="140" y="150" width="1120" height="720" filterUnits="userSpaceOnUse" color-interpolation-filters="sRGB">
      <feDropShadow dx="0" dy="40" stdDeviation="40" flood-color="#263EAA" flood-opacity="0.2"/>
    </filter>
  </defs>
  <rect width="1400" height="980" rx="48" fill="url(#hero-bg)"/>
  <circle cx="1180" cy="180" r="180" fill="#7B2FFF" fill-opacity="0.28"/>
  <circle cx="1040" cy="800" r="220" fill="#00F5D4" fill-opacity="0.12"/>
  <g filter="url(#shadow)">
    <rect x="200" y="190" width="1000" height="640" rx="36" fill="url(#hero-card)"/>
  </g>
  <rect x="240" y="230" width="180" height="560" rx="28" fill="#152364"/>
  <rect x="268" y="266" width="124" height="18" rx="9" fill="#FFFFFF" fill-opacity="0.82"/>
  <rect x="268" y="308" width="104" height="12" rx="6" fill="#B9C6FF" fill-opacity="0.78"/>
  <rect x="258" y="370" width="144" height="54" rx="18" fill="#FFFFFF" fill-opacity="0.1"/>
  <rect x="258" y="438" width="144" height="54" rx="18" fill="#4B63FF"/>
  <rect x="258" y="506" width="144" height="54" rx="18" fill="#FFFFFF" fill-opacity="0.1"/>
  <rect x="258" y="574" width="144" height="54" rx="18" fill="#FFFFFF" fill-opacity="0.1"/>
  <rect x="258" y="642" width="144" height="54" rx="18" fill="#FFFFFF" fill-opacity="0.1"/>
  <rect x="470" y="246" width="680" height="112" rx="28" fill="#1B2C7D"/>
  <rect x="504" y="278" width="222" height="18" rx="9" fill="#FFFFFF" fill-opacity="0.82"/>
  <rect x="504" y="312" width="330" height="12" rx="6" fill="#D4DCFF" fill-opacity="0.72"/>
  <rect x="900" y="270" width="214" height="64" rx="24" fill="#FFFFFF" fill-opacity="0.12"/>
  <rect x="470" y="386" width="204" height="128" rx="24" fill="#FFFFFF"/>
  <rect x="694" y="386" width="204" height="128" rx="24" fill="#FFFFFF"/>
  <rect x="918" y="386" width="204" height="128" rx="24" fill="#FFFFFF"/>
  <rect x="470" y="544" width="430" height="230" rx="28" fill="#FFFFFF"/>
  <rect x="930" y="544" width="192" height="230" rx="28" fill="#F6F7FF"/>
  <rect x="500" y="418" width="74" height="74" rx="18" fill="#EEF2FF"/>
  <rect x="724" y="418" width="74" height="74" rx="18" fill="#EEF2FF"/>
  <rect x="948" y="418" width="74" height="74" rx="18" fill="#EEF2FF"/>
  <rect x="504" y="578" width="362" height="18" rx="9" fill="#EEF2FF"/>
  <rect x="504" y="612" width="260" height="14" rx="7" fill="#D7E0FF"/>
  <rect x="504" y="650" width="322" height="18" rx="9" fill="#EEF2FF"/>
  <rect x="504" y="684" width="232" height="14" rx="7" fill="#D7E0FF"/>
  <rect x="960" y="578" width="132" height="132" rx="22" fill="#EEF2FF"/>
  <circle cx="1026" cy="644" r="42" fill="#4B63FF" fill-opacity="0.18"/>
  <path d="M1000 646L1018 664L1056 626" stroke="#4B63FF" stroke-width="12" stroke-linecap="round" stroke-linejoin="round"/>
</svg>
